solid
facet normal 0.0 0.0 1.0
 outer loop
  vertex -20.0 0.0 25.0
  vertex 0.0 0.0 25.0
  vertex -20.0 10.0 25.0
 endloop
endfacet
facet normal 0.0 -0.0 1.0
 outer loop
  vertex 0.0 0.0 25.0
  vertex 0.0 10.0 25.0
  vertex -20.0 10.0 25.0
 endloop
endfacet
facet normal 0.0 -1.0 0.0
 outer loop
  vertex -20.0 0.0 25.0
  vertex -20.0 0.0 15.0
  vertex 0.0 0.0 15.0
 endloop
endfacet
facet normal 0.0 -1.0 0.0
 outer loop
  vertex -20.0 0.0 25.0
  vertex 0.0 0.0 15.0
  vertex 0.0 0.0 25.0
 endloop
endfacet
facet normal -1.0 0.0 0.0
 outer loop
  vertex -20.0 0.0 25.0
  vertex -20.0 10.0 15.0
  vertex -20.0 0.0 15.0
 endloop
endfacet
facet normal -1.0 0.0 0.0
 outer loop
  vertex -20.0 0.0 25.0
  vertex -20.0 10.0 25.0
  vertex -20.0 10.0 15.0
 endloop
endfacet
facet normal 1.0 0.0 0.0
 outer loop
  vertex 0.0 0.0 25.0
  vertex 0.0 0.0 15.0
  vertex 0.0 10.0 15.0
 endloop
endfacet
facet normal 1.0 -0.0 0.0
 outer loop
  vertex 0.0 0.0 25.0
  vertex 0.0 10.0 15.0
  vertex 0.0 10.0 25.0
 endloop
endfacet
facet normal 0.0 1.0 0.0
 outer loop
  vertex -20.0 10.0 25.0
  vertex 0.0 10.0 15.0
  vertex -20.0 10.0 15.0
 endloop
endfacet
facet normal 0.0 1.0 0.0
 outer loop
  vertex 0.0 10.0 25.0
  vertex 0.0 10.0 15.0
  vertex -20.0 10.0 25.0
 endloop
endfacet
facet normal 0.0 0.0 -1.0
 outer loop
  vertex -20.0 0.0 15.0
  vertex 0.0 10.0 15.0
  vertex 0.0 0.0 15.0
 endloop
endfacet
facet normal 0.0 0.0 -1.0
 outer loop
  vertex -20.0 0.0 15.0
  vertex -20.0 10.0 15.0
  vertex 0.0 10.0 15.0
 endloop
endfacet
endsolid
